<svg width="61" height="62" viewBox="0 0 61 62" fill="none" xmlns="http://www.w3.org/2000/svg">
<g clip-path="url(#clip0)">
<path d="M54.0513 6.52069L40.3661 13.6293L21.0583 23.6776L26.9991 27.7931L16.0191 33.4586L23.3922 39.0707L19.4669 43.2397L6.73651 56.7086L23.9226 47.7828L39.7826 39.5517L33.7887 35.3828L44.8217 29.7707L37.4487 24.1586L46.0948 14.9655L54.0513 6.52069Z" fill="#45AAE0"/>
<path d="M13.367 45.9655C11.8287 46.6069 10.3435 47.3017 9.01739 48.1034C8.9113 48.1569 8.75217 48.2638 8.59304 48.3707C8.59304 48.3172 8.54 48.3172 8.54 48.2638C8.48696 48.2103 8.48696 48.2103 8.43391 48.1569L8.38087 48.1034C8.27478 47.9965 8.22174 47.8897 8.11565 47.7828C8.06261 47.7293 8.06261 47.6759 8.00957 47.6224L7.95652 47.569C7.90348 47.4621 7.79739 47.3552 7.74435 47.2483C7.6913 47.1948 7.63826 47.0879 7.58522 47.0345C7.53217 46.9276 7.42609 46.8207 7.37304 46.7138C7.32 46.6603 7.26696 46.5534 7.21391 46.5C7.16087 46.3931 7.05478 46.2862 7.00174 46.1793V46.1259C6.9487 46.0724 6.9487 46.019 6.89565 45.9655C6.84261 45.8586 6.73652 45.7517 6.68348 45.6448L6.63043 45.5914C6.63043 45.5379 6.57739 45.4845 6.57739 45.4845C6.4713 45.3241 6.41826 45.1638 6.31217 45.0034L6.25913 44.95C6.15304 44.7897 6.04696 44.5759 5.94087 44.4155C5.94087 44.3621 5.88783 44.3086 5.88783 44.3086L5.83478 44.2552C5.78174 44.1483 5.7287 43.9879 5.62261 43.881C5.56957 43.8276 5.56957 43.7741 5.51652 43.7207L5.46348 43.6672C5.41043 43.5603 5.35739 43.4534 5.30435 43.3465C5.2513 43.2397 5.2513 43.1862 5.19826 43.0793C5.14522 42.9724 5.09217 42.8655 5.03913 42.7586C4.98609 42.6517 4.98609 42.5983 4.93304 42.4914C4.88 42.3845 4.82696 42.2776 4.77391 42.1172V42.0638C4.77391 42.0103 4.72087 41.9569 4.72087 41.9034C4.66783 41.7966 4.61478 41.6362 4.56174 41.5293L4.5087 41.4224C4.5087 41.369 4.45565 41.369 4.45565 41.3155C4.40261 41.1552 4.29652 40.9414 4.24348 40.781V40.7276C4.19043 40.5138 4.08435 40.3534 4.0313 40.1397C4.0313 40.0862 3.97826 40.0328 3.97826 40.0328L3.92522 39.9259C3.87217 39.7655 3.81913 39.6586 3.76609 39.4983C3.76609 39.4448 3.71304 39.3914 3.71304 39.3379V39.2845C3.66 39.1776 3.66 39.0172 3.60696 38.9103C3.60696 38.8034 3.55391 38.75 3.55391 38.6431C3.50087 38.5362 3.50087 38.3759 3.44783 38.269C3.44783 38.1621 3.39478 38.1086 3.39478 38.0017C3.34174 37.8948 3.34174 37.7345 3.2887 37.6276V37.5741C3.2887 37.5207 3.23565 37.4672 3.23565 37.3603C3.18261 37.2 3.18261 37.0931 3.12957 36.9328V36.8259C3.12957 36.7724 3.12957 36.719 3.07652 36.719C3.02348 36.5052 2.97043 36.2914 2.97043 36.0776C2.91739 35.8638 2.91739 35.65 2.86435 35.4362C2.86435 35.3828 2.86435 35.3293 2.86435 35.3293V35.2224C2.86435 35.0621 2.8113 34.9017 2.8113 34.7948C2.8113 34.7414 2.8113 34.6879 2.8113 34.6345V34.581C2.8113 34.4207 2.75826 34.3138 2.75826 34.1534C2.75826 34.0465 2.75826 33.9931 2.70522 33.8862C2.70522 33.7259 2.70522 33.619 2.65217 33.4586C2.65217 33.3517 2.65217 33.2983 2.65217 33.1914C2.65217 33.031 2.65217 32.9241 2.65217 32.7638C2.65217 32.7638 2.65217 32.6034 2.65217 32.55H11.8817C11.8817 32.7103 11.8817 32.8172 11.8817 32.9776L14.9052 31.4276L18.1939 29.7172H14.693C14.7991 25.3345 15.5417 21.0586 16.7617 17.2638C19.4139 18.0655 22.2252 18.6 25.1426 18.9207L31.8791 15.3931V3.15344C35.327 3.68793 38.5626 6.36034 41.1617 10.5828L43.7078 9.24655C42.7 7.58965 41.6391 6.0931 40.4191 4.86379C40.4722 4.86379 40.4722 4.91724 40.5252 4.91724C40.6843 4.97069 40.8435 5.02413 41.0026 5.13103H41.0557C41.1087 5.13103 41.1087 5.13103 41.1617 5.18448C41.3209 5.23793 41.48 5.34482 41.6922 5.39827L41.7983 5.45172C42.0104 5.55862 42.1696 5.61206 42.3817 5.71896H42.4348C43.7609 6.36034 44.9809 7.10862 46.2009 7.91034L46.5191 7.75L49.0122 6.46724C45.0339 3.42069 40.4191 1.38965 35.4861 0.587926C33.8417 0.320685 32.1974 0.160339 30.5 0.160339C22.2783 0.160339 14.587 3.36724 8.80522 9.24655C8.64609 9.40689 8.48696 9.56724 8.32783 9.78103C8.1687 9.94137 8.00957 10.1017 7.85043 10.3155C7.47913 10.7431 7.10783 11.1707 6.73652 11.5983C6.52435 11.8655 6.31217 12.1328 6.1 12.4L6.04696 12.4534C5.99391 12.5069 5.99391 12.5603 5.94087 12.6138C5.88783 12.7207 5.78174 12.7741 5.7287 12.881L5.67565 12.9879C5.62261 13.0414 5.56957 13.0948 5.51652 13.2017C5.46348 13.3086 5.35739 13.4155 5.30435 13.5224C5.2513 13.6293 5.19826 13.6828 5.14522 13.7896C5.09217 13.8965 4.98609 14.0034 4.93304 14.1103C4.88 14.2172 4.82696 14.2707 4.77391 14.3776C4.72087 14.4845 4.61478 14.5914 4.56174 14.6983C4.5087 14.7517 4.45565 14.8586 4.40261 14.9121L4.34957 15.019C4.29652 15.1259 4.24348 15.2328 4.19043 15.2862C4.13739 15.3397 4.13739 15.3931 4.08435 15.5L4.0313 15.5534C3.87217 15.7672 3.76609 16.0345 3.66 16.2483L3.60696 16.3552C3.60696 16.4086 3.55391 16.4621 3.55391 16.5155C3.50087 16.569 3.44783 16.6759 3.44783 16.7293L3.34174 16.8897C3.2887 16.9431 3.2887 17.05 3.23565 17.1034C3.18261 17.2103 3.12957 17.2638 3.07652 17.3707L3.02348 17.4241C2.97043 17.531 2.91739 17.6379 2.86435 17.6914C2.8113 17.7983 2.75826 17.9052 2.70522 18.0121C2.65217 18.119 2.59913 18.2259 2.54609 18.3328C2.49304 18.4396 2.44 18.5465 2.38696 18.6534C2.33391 18.7603 2.28087 18.8672 2.22783 18.9741C2.17478 19.081 2.12174 19.1879 2.0687 19.2948C2.01565 19.4017 1.96261 19.5086 1.96261 19.6155L1.90957 19.7224C1.85652 19.7759 1.85652 19.8828 1.80348 19.9362C1.75043 20.0431 1.69739 20.15 1.69739 20.2569L1.64435 20.4172C1.64435 20.4707 1.5913 20.5241 1.5913 20.5776C1.53826 20.7914 1.43217 21.0052 1.37913 21.219C1.37913 21.2724 1.32609 21.3259 1.32609 21.3793L1.27304 21.4862C1.22 21.5931 1.22 21.7534 1.16696 21.8603C1.16696 21.9138 1.11391 22.0207 1.11391 22.0741V22.1276C1.06087 22.2345 1.06087 22.3948 1.00783 22.5017C0.954783 22.6086 0.954783 22.7155 0.901739 22.8224C0.848696 22.9293 0.848696 23.0897 0.795652 23.1965C0.795652 23.3034 0.742609 23.4103 0.742609 23.5172C0.689565 23.6241 0.689565 23.7845 0.636522 23.8914V23.9448C0.636522 24.0517 0.583478 24.1052 0.583478 24.2121C0.530435 24.3724 0.530435 24.4793 0.477391 24.6397V24.7465C0.477391 24.8 0.477391 24.8534 0.424348 24.9069C0.371304 25.0672 0.371304 25.2276 0.318261 25.4948V25.5483C0.318261 25.6017 0.318261 25.6017 0.318261 25.6552C0.265217 25.869 0.265217 26.0828 0.212174 26.35C0.212174 26.4034 0.212174 26.4569 0.212174 26.5103V26.6172C0.212174 26.7776 0.15913 26.9379 0.15913 27.0983C0.15913 27.1517 0.15913 27.2586 0.15913 27.3121V27.3655C0.15913 27.5259 0.106087 27.6328 0.106087 27.7931C0.106087 27.7931 0.106087 27.7931 0.106087 27.8465C0.106087 27.9534 0.106087 28.0069 0.106087 28.1138C0.106087 28.2741 0.106087 28.381 0.0530435 28.5414C0.0530435 28.6483 0.0530435 28.7552 0.0530435 28.8086C0.0530435 28.969 0.0530435 29.1293 0 29.2362V29.2897C0 29.3431 0 29.3431 0 29.3965C0 29.45 0 29.45 0 29.5034C0 29.6638 0 29.8241 0 29.9845V30.0914C0 30.1448 0 30.1983 0 30.2517C0 30.519 0 30.7328 0 30.9465C0 31.1603 0 31.4276 0 31.6948C0 31.7483 0 31.8017 0 31.8552V31.9621C0 32.1224 0 32.2828 0 32.4431C0 32.4965 0 32.6034 0 32.6569V32.7103C0 32.8707 0 33.031 0.0530435 33.1379C0.0530435 33.2448 0.0530435 33.3517 0.0530435 33.4052C0.0530435 33.5121 0.0530435 33.6724 0.106087 33.7793C0.106087 33.8328 0.106087 33.8328 0.106087 33.8862C0.106087 33.9931 0.106087 34.0465 0.106087 34.1534C0.106087 34.3138 0.15913 34.4207 0.15913 34.581V34.6345C0.15913 34.6879 0.15913 34.7948 0.15913 34.8483C0.15913 35.0086 0.212174 35.169 0.212174 35.3293V35.4362C0.212174 35.4897 0.212174 35.5431 0.212174 35.5965C0.265217 35.8638 0.265217 36.0776 0.318261 36.2914C0.318261 36.3448 0.318261 36.3448 0.318261 36.3983V36.4517C0.371304 36.6655 0.371304 36.8259 0.424348 37.0396C0.424348 37.0931 0.424348 37.1465 0.477391 37.2V37.3069C0.530435 37.4672 0.530435 37.5741 0.583478 37.7345C0.583478 37.8414 0.636522 37.8948 0.636522 38.0017V38.0552C0.689565 38.1621 0.689565 38.3224 0.742609 38.4293C0.742609 38.5362 0.795652 38.6431 0.795652 38.75C0.848696 38.8569 0.848696 39.0172 0.901739 39.1241C0.954783 39.231 0.954783 39.3379 1.00783 39.4448C1.06087 39.5517 1.06087 39.7121 1.11391 39.819V39.8724C1.11391 39.9259 1.16696 40.0328 1.16696 40.0862C1.22 40.1931 1.22 40.3534 1.27304 40.4603L1.32609 40.5672C1.32609 40.6207 1.37913 40.6741 1.37913 40.7276C1.43217 40.9414 1.53826 41.1552 1.5913 41.369C1.5913 41.4224 1.64435 41.4759 1.64435 41.5293L1.69739 41.6896C1.75043 41.7965 1.80348 41.9034 1.80348 42.0103C1.85652 42.0638 1.85652 42.1707 1.90957 42.2241L1.96261 42.331C2.01565 42.4379 2.0687 42.5448 2.0687 42.6517C2.12174 42.7586 2.17478 42.8655 2.17478 42.9724C2.22783 43.0793 2.28087 43.1862 2.33391 43.2931C2.38696 43.4 2.44 43.5069 2.49304 43.6138C2.54609 43.7207 2.59913 43.8276 2.65217 43.9345C2.70522 44.0414 2.75826 44.1483 2.8113 44.2552C2.86435 44.3621 2.91739 44.4155 2.97043 44.5224L3.02348 44.6293C3.07652 44.7362 3.12957 44.7896 3.18261 44.8965C3.23565 44.95 3.23565 45.0569 3.2887 45.1103L3.39478 45.2707C3.44783 45.3776 3.50087 45.431 3.50087 45.5379C3.50087 45.5914 3.55391 45.6448 3.55391 45.6983L3.60696 45.8052C3.71304 46.019 3.87217 46.2862 3.97826 46.5L4.0313 46.5534C4.08435 46.6069 4.08435 46.6603 4.13739 46.7672C4.19043 46.8741 4.24348 46.981 4.29652 47.0345L4.34957 47.1414C4.40261 47.1948 4.45565 47.3017 4.5087 47.3552C4.56174 47.4621 4.66783 47.569 4.72087 47.6759C4.77391 47.7828 4.82696 47.8362 4.88 47.9431C4.93304 48.05 5.03913 48.1569 5.09217 48.2638C5.14522 48.3707 5.19826 48.4241 5.2513 48.531C5.30435 48.6379 5.41043 48.7448 5.46348 48.8517C5.51652 48.9052 5.56957 49.0121 5.62261 49.0655L5.67565 49.1724C5.7287 49.2793 5.83478 49.3328 5.88783 49.4397C5.94087 49.4931 5.94087 49.5465 5.99391 49.6L6.04696 49.6534C6.25913 49.9741 6.52435 50.2414 6.68348 50.5086C7.05478 50.9897 7.47913 51.4172 7.90348 51.8983L9.65391 50.081L13.367 45.9655ZM11.8287 29.5034H2.59913C2.59913 29.45 2.59913 29.2897 2.59913 29.2897C2.59913 29.1293 2.59913 29.0224 2.59913 28.8621C2.59913 28.7552 2.59913 28.7017 2.59913 28.5948C2.59913 28.4345 2.59913 28.3276 2.65217 28.1672C2.65217 28.0603 2.65217 28.0069 2.70522 27.9C2.70522 27.7396 2.75826 27.6328 2.75826 27.4724V27.419C2.75826 27.3655 2.75826 27.3121 2.75826 27.2586C2.75826 27.0983 2.8113 26.9379 2.8113 26.831V26.7241C2.8113 26.6707 2.8113 26.6172 2.8113 26.6172C2.86435 26.4034 2.86435 26.1896 2.91739 25.9759C2.97043 25.7621 2.97043 25.5483 3.02348 25.3345C3.02348 25.281 3.02348 25.281 3.02348 25.2276V25.1207C3.07652 24.9603 3.07652 24.8534 3.12957 24.6931C3.12957 24.6397 3.18261 24.5862 3.18261 24.5328V24.4793C3.23565 24.3724 3.23565 24.2121 3.2887 24.1052C3.2887 23.9983 3.34174 23.9448 3.34174 23.8379C3.39478 23.731 3.39478 23.5707 3.44783 23.4638C3.44783 23.3569 3.50087 23.3034 3.50087 23.1965C3.55391 23.0897 3.55391 22.9293 3.60696 22.8224V22.769C3.60696 22.7155 3.66 22.6621 3.66 22.6086C3.71304 22.4483 3.76609 22.3414 3.81913 22.181L3.87217 22.0741C3.87217 22.0207 3.87217 22.0207 3.92522 21.9672C3.97826 21.7534 4.08435 21.5396 4.13739 21.3793V21.3259C4.19043 21.1121 4.29652 20.9517 4.34957 20.7914C4.34957 20.7379 4.40261 20.6845 4.40261 20.6845L4.45565 20.5776C4.5087 20.4707 4.56174 20.3103 4.61478 20.2034C4.61478 20.15 4.66783 20.0965 4.72087 19.9897V19.9362C4.77391 19.8293 4.82696 19.7224 4.88 19.5621C4.93304 19.4552 4.93304 19.4017 4.98609 19.2948C5.03913 19.1879 5.09217 19.081 5.14522 18.9741C5.19826 18.8672 5.19826 18.8138 5.2513 18.7069C5.30435 18.6 5.35739 18.4931 5.41043 18.3862L5.46348 18.3328C5.51652 18.2793 5.51652 18.2259 5.56957 18.1724C5.62261 18.0655 5.67565 17.9052 5.78174 17.7983L5.83478 17.6914C5.83478 17.6379 5.88783 17.6379 5.88783 17.5845C5.99391 17.3707 6.1 17.2103 6.20609 17.05L6.25913 16.9965C6.36522 16.8362 6.4713 16.6759 6.52435 16.5155C6.52435 16.4621 6.57739 16.4621 6.57739 16.4086L6.63043 16.3552C6.68348 16.2483 6.78957 16.1414 6.84261 16.0345C6.89565 15.981 6.89565 15.9276 6.9487 15.8741L7.00174 15.8207C7.05478 15.7138 7.16087 15.6069 7.21391 15.5C7.26696 15.4465 7.32 15.3397 7.37304 15.2862C7.42609 15.1793 7.53217 15.0724 7.58522 14.9655C7.63826 14.9121 7.6913 14.8052 7.74435 14.7517C7.79739 14.6448 7.90348 14.5379 7.95652 14.431L8.00957 14.3776C8.06261 14.3241 8.06261 14.2707 8.11565 14.2172C8.22174 14.1103 8.27478 14.0034 8.38087 13.8965L8.43391 13.8431C8.43391 13.7897 8.48696 13.7897 8.48696 13.7362C8.48696 13.6828 8.54 13.6828 8.54 13.6293C8.69913 13.7362 8.80522 13.7897 8.96435 13.8965C10.5026 14.8052 12.2 15.6069 14.0035 16.3017C12.6774 20.2034 11.9348 24.8 11.8287 29.5034ZM15.0113 13.469C13.367 12.8276 11.8817 12.1328 10.5026 11.331C10.6617 11.1707 10.8209 11.0103 10.98 10.85C11.1391 10.6896 11.2983 10.5293 11.4574 10.369L11.5104 10.3155C11.6696 10.1552 11.8287 9.99482 11.9878 9.88793C13.9504 8.17758 16.0722 6.73448 18.4061 5.61206H18.4591C18.6713 5.50517 18.8304 5.39827 19.0426 5.34482L19.1487 5.29137C19.3609 5.18448 19.52 5.13103 19.6791 5.07758C19.7322 5.07758 19.7322 5.07758 19.7852 5.02413H19.8383C20.0504 4.97068 20.2096 4.86379 20.3157 4.81034C20.3687 4.81034 20.3687 4.75689 20.4217 4.75689C19.1487 6.03965 18.0348 7.6431 16.9739 9.40689C16.2843 10.5828 15.5948 11.9724 15.0113 13.469ZM29.0148 16.1414C25.0365 16.0345 21.2174 15.4465 17.7165 14.3776C18.247 13.0948 18.8304 11.8655 19.52 10.7965C22.1191 6.30689 25.5139 3.52758 29.0678 2.9931L29.0148 16.1414Z" fill="white"/>
<path d="M14.4808 35.4896L11.8817 33.5121C12.0939 37.681 12.7835 41.7431 13.9504 45.3776L16.2313 42.9724C15.5948 40.6741 15.1704 38.269 14.9052 35.8103L14.4808 35.4896Z" fill="white"/>
<path d="M61.1061 30.1983C61.1061 30.1448 61.1061 30.0914 61.1061 30.0379V29.931C61.1061 29.7707 61.1061 29.6103 61.1061 29.45C61.1061 29.3965 61.1061 29.2896 61.1061 29.2362V29.1827C61.1061 29.0224 61.1061 28.8621 61.0531 28.7552C61.0531 28.6483 61.0531 28.5414 61.0531 28.4879C61.0531 28.3276 61.0531 28.2207 61 28.0603C61 27.9534 61 27.8465 60.947 27.7931C60.947 27.6327 60.8939 27.5258 60.8939 27.3655V27.3121C60.8939 27.2586 60.8939 27.1517 60.8939 27.0983C60.8939 26.9379 60.8409 26.7776 60.8409 26.6172V26.5103C60.8409 26.4569 60.8409 26.4034 60.8409 26.35C60.7878 26.0827 60.7878 25.869 60.7348 25.6552C60.7348 25.6017 60.7348 25.6017 60.7348 25.5483V25.4948C60.6817 25.281 60.6818 25.1207 60.6287 24.9069C60.6287 24.8534 60.6287 24.8 60.5757 24.7465V24.6396C60.5226 24.4793 60.5226 24.3724 60.4696 24.2121C60.4696 24.1052 60.4165 24.0517 60.4165 23.9448V23.8914C60.3635 23.7845 60.3635 23.6241 60.3104 23.5172C60.3104 23.4103 60.2574 23.3034 60.2574 23.1965C60.2044 23.0896 60.2044 22.9293 60.1513 22.8224C60.0983 22.7155 60.0983 22.6086 60.0452 22.5017C59.9922 22.3948 59.9922 22.2345 59.9391 22.1276V22.0741C59.9391 22.0207 59.8861 21.9138 59.8861 21.8603C59.8331 21.7534 59.833 21.5931 59.78 21.4862L59.727 21.3793C59.727 21.3258 59.6739 21.2724 59.6739 21.1655C59.6209 20.9517 59.5148 20.7379 59.4617 20.5241C59.4617 20.4707 59.4087 20.4172 59.4087 20.3638L59.3557 20.2034C59.3026 20.0965 59.2496 19.9896 59.2496 19.8827C59.1965 19.8293 59.1965 19.7224 59.1435 19.669L59.0904 19.5621C59.0374 19.4552 58.9844 19.3483 58.9844 19.2414C58.9313 19.1345 58.8783 19.0276 58.8252 18.9207C58.7722 18.8138 58.7191 18.7069 58.6661 18.6C58.6131 18.4931 58.56 18.3862 58.507 18.2793C58.4539 18.1724 58.4009 18.0655 58.3478 17.9586C58.2948 17.8517 58.2417 17.7448 58.1887 17.6379C58.1357 17.531 58.0826 17.4241 58.0296 17.3172V17.2638C57.9765 17.1569 57.9235 17.1034 57.8704 16.9965C57.8174 16.9431 57.8174 16.8362 57.7644 16.7827L57.6583 16.6224C57.6052 16.5155 57.5522 16.4621 57.5522 16.3552C57.5522 16.3017 57.4991 16.3017 57.4991 16.2483L57.4461 16.1948C57.34 15.9276 57.1809 15.7138 57.0217 15.4465L56.9687 15.3396C56.9157 15.2862 56.9157 15.2327 56.8626 15.1258C56.8096 15.019 56.7565 14.9121 56.7035 14.8586L56.6504 14.7517C56.5974 14.6983 56.5444 14.5914 56.4913 14.5379C56.4383 14.431 56.3322 14.3241 56.2791 14.2172C56.2261 14.1103 56.1731 14.0569 56.12 13.95C56.067 13.8431 55.9609 13.7362 55.9078 13.6293C55.8548 13.5224 55.8017 13.469 55.7487 13.3621C55.6957 13.2552 55.5896 13.1483 55.5365 13.0414C55.4835 12.9879 55.4304 12.9345 55.3774 12.881L55.3244 12.7741C55.2713 12.6672 55.1652 12.5603 55.1122 12.5069C55.0591 12.4534 55.0591 12.4 55.0061 12.3465L54.9531 12.2931C54.5817 11.7586 54.1044 11.2776 53.7331 10.7965L49.8609 14.9121C50.6035 14.5379 51.2931 14.2172 51.9296 13.7896C52.0887 13.7362 52.1948 13.6293 52.3539 13.5224C52.3539 13.5758 52.407 13.5758 52.407 13.6293C52.46 13.6827 52.46 13.6827 52.5131 13.7362L52.5661 13.7896C52.6722 13.8965 52.7252 14.0034 52.8313 14.1103C52.8844 14.1638 52.8844 14.2172 52.9374 14.2707L52.9904 14.3241C53.0435 14.431 53.1496 14.5379 53.2026 14.6448C53.2557 14.6983 53.3087 14.8052 53.3617 14.8586C53.4148 14.9655 53.5209 15.0724 53.5739 15.1793C53.627 15.2327 53.68 15.3396 53.7331 15.3931C53.7861 15.5 53.8922 15.6069 53.9452 15.7138L53.9983 15.7672C54.0513 15.8207 54.0513 15.8741 54.1044 15.9276C54.1574 16.0345 54.2635 16.1414 54.3165 16.2483L54.3696 16.3017C54.3696 16.3552 54.4226 16.4086 54.4226 16.4086C54.5287 16.569 54.5817 16.7293 54.6878 16.8896L54.7409 16.9431C54.847 17.1034 54.9531 17.3172 55.0591 17.4776C55.0591 17.531 55.1122 17.531 55.1122 17.5845L55.1652 17.6914C55.2183 17.7983 55.2713 17.9586 55.3774 18.0655C55.4304 18.119 55.4304 18.1724 55.4835 18.2258L55.5365 18.2793C55.5896 18.3862 55.6426 18.4931 55.6957 18.6C55.7487 18.7069 55.7487 18.7603 55.8017 18.8672C55.8548 18.9741 55.9078 19.081 55.9609 19.1879C56.0139 19.2948 56.0139 19.3483 56.067 19.4552C56.12 19.5621 56.1731 19.669 56.2261 19.8293V19.8827C56.2261 19.9362 56.2791 19.9896 56.2791 20.0431C56.3322 20.15 56.3852 20.3103 56.4383 20.4172L56.4913 20.5241C56.4913 20.5776 56.5444 20.631 56.5444 20.631C56.5974 20.7914 56.7035 21.0052 56.7565 21.1655V21.219C56.8096 21.4327 56.9157 21.5931 56.9687 21.8069C56.9687 21.8603 57.0217 21.9138 57.0217 21.9138L57.0748 22.0207C57.1278 22.181 57.1809 22.2879 57.1809 22.4483C57.1809 22.5017 57.2339 22.5552 57.2339 22.6086V22.6621C57.287 22.769 57.287 22.9293 57.34 23.0362C57.34 23.1431 57.3931 23.1965 57.3931 23.3034C57.4461 23.4103 57.4461 23.5707 57.4991 23.6776C57.4991 23.7845 57.5522 23.8379 57.5522 23.9448C57.6052 24.0517 57.6052 24.2121 57.6583 24.319V24.3724C57.6583 24.4258 57.7113 24.4793 57.7113 24.5327C57.7644 24.6931 57.7644 24.8 57.8174 24.9603V25.0672C57.8174 25.1207 57.8174 25.1207 57.8174 25.1741C57.8704 25.3879 57.9235 25.6017 57.9235 25.8155C57.9765 26.0293 57.9765 26.2431 58.0296 26.4569C58.0296 26.5103 58.0296 26.5103 58.0296 26.5638V26.6707C58.0296 26.831 58.0826 26.9914 58.0826 27.0983C58.0826 27.1517 58.0826 27.2052 58.0826 27.2586V27.3121C58.0826 27.4724 58.1357 27.5793 58.1357 27.7396C58.1357 27.8465 58.1357 27.9 58.1887 28.0069C58.1887 28.1672 58.1887 28.2741 58.2417 28.4345C58.2417 28.5414 58.2417 28.5948 58.2417 28.7017C58.2417 28.8621 58.2417 28.969 58.2417 29.1293C58.2417 29.1293 58.2417 29.2896 58.2417 29.3431H49.0122C48.9061 25.1741 48.2696 21.1121 47.2087 17.3707L44.9278 19.7758C45.5113 22.181 45.8826 24.7465 46.0418 27.3121L46.36 27.5258L49.5957 29.9845L45.9887 31.8552L45.4052 32.1758H46.2009C46.0948 36.5586 45.3522 40.8345 44.1322 44.6293C42.1696 44.0414 40.1009 43.5603 37.9261 43.2396L33.3113 45.6448C36.7591 45.8586 40.0478 46.3931 43.1244 47.3017C42.5939 48.5845 42.0104 49.8138 41.3209 50.8827C38.7218 55.3724 35.327 58.1517 31.7731 58.6862V46.3931L28.9618 47.8362V58.9C25.8322 58.3655 22.8087 56.1741 20.3687 52.5396L17.8226 53.8759C18.6183 55.1052 19.52 56.2276 20.4218 57.1896L20.3157 57.1362C20.1565 57.0827 19.9974 57.0293 19.8383 56.9224L19.7852 56.8689C19.7852 56.8689 19.7322 56.869 19.7322 56.8155C19.5731 56.7621 19.4139 56.6552 19.2018 56.6017L19.0957 56.5483C18.8835 56.4414 18.7244 56.3879 18.5122 56.281H18.4591C17.5574 55.8534 16.7618 55.3724 15.9131 54.8379L12.9957 56.3345C18.0878 59.9155 24.1348 61.8396 30.447 61.8396C38.6687 61.8396 46.36 58.6327 52.1418 52.7534C52.3009 52.5931 52.46 52.4327 52.6191 52.2189C53.4148 51.3638 54.1574 50.5086 54.847 49.5465L54.9 49.4396C54.9531 49.3862 54.9531 49.3327 55.0061 49.2793C55.0591 49.1724 55.1652 49.0655 55.2183 48.9586L55.2713 48.9052C55.3244 48.8517 55.3774 48.7983 55.4304 48.6914C55.4835 48.5845 55.5896 48.4776 55.6426 48.3707C55.6957 48.2638 55.7487 48.2103 55.8017 48.1034C55.8548 47.9965 55.9609 47.8896 56.0139 47.7827C56.067 47.6758 56.12 47.6224 56.1731 47.5155C56.2261 47.4086 56.3322 47.3017 56.3852 47.1948C56.4383 47.1414 56.4913 47.0345 56.5444 46.981L56.5974 46.8741C56.6504 46.7672 56.7035 46.6603 56.7565 46.6069C56.8096 46.5534 56.8096 46.5 56.8626 46.3931L56.9157 46.3396C57.0748 46.0724 57.1809 45.8586 57.34 45.5914L57.3931 45.5379C57.3931 45.4845 57.4461 45.4845 57.4461 45.431C57.4991 45.3241 57.5522 45.2707 57.5522 45.1638L57.6583 45.0034C57.7113 44.95 57.7113 44.8431 57.7644 44.7896C57.8174 44.6827 57.8704 44.6293 57.9235 44.5224L57.9765 44.4689C58.0296 44.3621 58.0826 44.2552 58.1357 44.2017C58.1887 44.0948 58.2417 43.9879 58.2948 43.881C58.3478 43.7741 58.4009 43.6672 58.4539 43.5603C58.507 43.4534 58.56 43.3465 58.6131 43.2396C58.6661 43.1327 58.7191 43.0258 58.7722 42.919C58.8252 42.8121 58.8783 42.7052 58.9313 42.5983C58.9844 42.4914 59.0374 42.3845 59.0374 42.2776L59.0904 42.1707C59.1435 42.1172 59.1435 42.0103 59.1965 41.9569C59.2496 41.85 59.3026 41.7431 59.3026 41.6362L59.3557 41.4758C59.3557 41.4224 59.4087 41.369 59.4087 41.3155C59.4618 41.1017 59.5678 40.8879 59.6209 40.6741C59.6209 40.6207 59.6739 40.5672 59.6739 40.5138L59.727 40.4069C59.78 40.3 59.78 40.1396 59.8331 40.0327C59.8331 39.9793 59.8861 39.8724 59.8861 39.819V39.7655C59.9391 39.6586 59.9391 39.4983 59.9922 39.3914C60.0452 39.2845 60.0452 39.1776 60.0983 39.0707C60.1513 38.9638 60.1513 38.8034 60.2044 38.6965C60.2044 38.5896 60.2574 38.4827 60.2574 38.3758C60.3104 38.269 60.3104 38.1086 60.3635 38.0017V37.9483C60.3635 37.8414 60.4165 37.7879 60.4165 37.681C60.4696 37.5207 60.4696 37.4138 60.5226 37.2534V37.1465C60.5226 37.0931 60.5226 37.0396 60.5757 36.9862C60.6287 36.8258 60.6287 36.6655 60.6817 36.3983V36.3448C60.6817 36.3448 60.6817 36.2914 60.6817 36.2379C60.7348 36.0241 60.7348 35.8103 60.7878 35.5431C60.7878 35.4896 60.7878 35.4362 60.7878 35.3827V35.2758C60.7878 35.1155 60.8409 34.9552 60.8409 34.7948C60.8409 34.7414 60.8409 34.6345 60.8409 34.581V34.5276C60.8409 34.3672 60.8939 34.2603 60.8939 34.1C60.8939 33.9931 60.8939 33.8862 60.947 33.8327C60.947 33.6724 60.947 33.5655 61 33.4052C61 33.2983 61 33.1914 61 33.1379C61 32.9776 61 32.8172 61.0531 32.7103V32.6569C61.0531 32.6034 61.0531 32.4965 61.0531 32.4431C61.0531 32.2827 61.0531 32.1224 61.0531 31.9621V31.8552C61.0531 31.8017 61.0531 31.7483 61.0531 31.6948C61.0531 31.4276 61.0531 31.2138 61.0531 30.9465C61.1061 30.6793 61.1061 30.4655 61.1061 30.1983ZM49.8609 50.9896C49.7017 51.15 49.5426 51.3103 49.3304 51.4707C49.1713 51.631 49.0122 51.7914 48.8 51.9517C46.8374 53.6621 44.7157 55.1052 42.3818 56.2276H42.3287C42.1165 56.3345 41.9044 56.4414 41.7452 56.4948L41.6391 56.5483C41.427 56.6552 41.2678 56.7086 41.1087 56.7621L40.9496 56.8155C40.7374 56.869 40.5783 56.9758 40.4722 57.0293C40.4191 57.0293 40.3661 57.0827 40.3661 57.0827C41.6391 55.8 42.7531 54.1965 43.8139 52.4327C44.5565 51.15 45.2461 49.7603 45.8296 48.3172C47.4739 48.9586 48.9591 49.6534 50.3383 50.4552C50.1791 50.6689 50.02 50.8293 49.8609 50.9896ZM58.2417 32.55C58.2417 32.7103 58.2417 32.8172 58.2417 32.9776C58.2417 33.0845 58.2417 33.1379 58.2417 33.2448C58.2417 33.4052 58.2417 33.5121 58.1887 33.6724C58.1887 33.7793 58.1887 33.8327 58.1357 33.9396C58.1357 34.1 58.0826 34.2069 58.0826 34.3672V34.4207C58.0826 34.4741 58.0826 34.5276 58.0826 34.581C58.0826 34.7414 58.0296 34.9017 58.0296 35.0086V35.1155C58.0296 35.1689 58.0296 35.2224 58.0296 35.2224C57.9765 35.4362 57.9765 35.65 57.9235 35.8638C57.8704 36.0776 57.8704 36.2914 57.8174 36.5052C57.8174 36.5586 57.8174 36.6121 57.7644 36.6121V36.7189C57.7113 36.8793 57.7113 36.9862 57.6583 37.1465C57.6583 37.2 57.6052 37.2534 57.6052 37.3603V37.4138C57.5522 37.5207 57.5522 37.681 57.4991 37.7879C57.4991 37.8948 57.4461 37.9483 57.4461 38.0552C57.3931 38.1621 57.3931 38.3224 57.34 38.4293C57.34 38.5362 57.287 38.5896 57.287 38.6965C57.2339 38.8034 57.2339 38.9638 57.1809 39.0707V39.1241C57.1809 39.1776 57.1278 39.231 57.1278 39.2845C57.0748 39.4448 57.0218 39.5517 56.9687 39.7121L56.9157 39.819C56.9157 39.8724 56.9157 39.8724 56.8626 39.9258C56.8096 40.1396 56.7035 40.3534 56.6504 40.5138V40.5672C56.5974 40.7276 56.4913 40.9414 56.4383 41.1017C56.4383 41.1552 56.3852 41.2086 56.3852 41.2086L56.3322 41.3155C56.2791 41.4224 56.2261 41.5827 56.1731 41.6896C56.1731 41.7431 56.12 41.7965 56.12 41.85V41.9034C56.067 42.0103 56.0139 42.1172 55.9609 42.2776C55.9078 42.3845 55.9078 42.4379 55.8548 42.5448C55.8018 42.6517 55.7487 42.7586 55.6957 42.8655C55.6426 42.9724 55.6426 43.0258 55.5896 43.1327C55.5365 43.2396 55.4835 43.3465 55.4304 43.4534L55.3774 43.5069C55.3774 43.5603 55.3244 43.6138 55.3244 43.6672C55.2713 43.7741 55.2183 43.9345 55.1122 44.0414L55.0591 44.1483C55.0591 44.2017 55.0061 44.2017 55.0061 44.2552C54.9 44.469 54.7939 44.6293 54.6878 44.7896L54.6348 44.8431C54.5287 45.0034 54.4226 45.1638 54.3696 45.3241C54.3696 45.3776 54.3165 45.3776 54.3165 45.431L54.2635 45.5379C54.2104 45.6448 54.1044 45.7517 54.0513 45.8586C53.9983 45.9121 53.9983 45.9655 53.9452 46.0189L53.8922 46.0724C53.8391 46.1793 53.7331 46.2862 53.68 46.3931C53.627 46.4465 53.5739 46.5534 53.5209 46.6069C53.4678 46.7138 53.3617 46.8207 53.3087 46.9276C53.2557 46.981 53.2026 47.0879 53.1496 47.1414C53.0965 47.2483 52.9904 47.3552 52.9374 47.4621L52.8844 47.5155C52.8313 47.5689 52.8313 47.6224 52.7783 47.6758C52.6722 47.7827 52.6191 47.8896 52.5131 47.9965L52.46 48.05C52.46 48.1034 52.407 48.1034 52.3539 48.1569C52.3539 48.2103 52.3009 48.2103 52.3009 48.2638C52.1418 48.1569 52.0357 48.1034 51.8765 47.9965C50.3383 47.0879 48.6409 46.2862 46.8374 45.5914C48.1635 41.5293 48.9061 36.8793 49.0652 32.2293H58.2948C58.2417 32.3896 58.2417 32.55 58.2417 32.55Z" fill="white"/>
</g>
<defs>
<clipPath id="clip0">
<rect width="61" height="62" fill="white"/>
</clipPath>
</defs>
</svg>
